PathFileType	4	(x/y/z)	S09_BK_Cal_T01
DataRate	CameraRate	NumFrames	NumMarkers	Units	OrigDataRate	OrigDataStartFrame	OrigNumFrames
240	240	11	51	mm	240	1	2400
Frame#	Time	Sternum			R.Acromium			L.Acromium			Top.Head			R.ASIS			L.ASIS			R.PSIS			L.PSIS			R.Great.Tro			L.Great.Tro			R.Iliac.Crest			L.Iliac.Crest			V.Sacral			R.Thigh.Upper.Post			R.Thigh.Lower.Ant			R.Thigh.Lower.Post			R.Thigh.Upper.Ant			R.Knee.Lat			R.Knee.Med			R.Shank.Upper.Post			R.Shank.Lower.Ant			R.Shank.Lower.Post			R.Shank.Upper.Ant			R.Ankle.Lat			R.Ankle.Med			R.Heel.Upper			R.Heel.Med			R.Heel.Lat			R.Toe.Lat			R.Toe.Med			R.Toe.Tip			L.Thigh.Upper.Post			L.Thigh.Lower.Ant			L.Thigh.Lower.Post			L.Thigh.Upper.Ant			L.Knee.Lat			L.Knee.Med			L.Shank.Upper.Post			L.Shank.Lower.Ant			L.Shank.Lower.Post			L.Shank.Upper.Ant			L.Ankle.Lat			L.Ankle.Med			L.Heel.Upper			L.Heel.Med			L.Heel.Lat			L.Toe.Lat			L.Toe.Med			L.Toe.Tip			Cervical.Spine			Back			
		X1	Y1	Z1	X2	Y2	Z2	X3	Y3	Z3	X4	Y4	Z4	X5	Y5	Z5	X6	Y6	Z6	X7	Y7	Z7	X8	Y8	Z8	X9	Y9	Z9	X10	Y10	Z10	X11	Y11	Z11	X12	Y12	Z12	X13	Y13	Z13	X14	Y14	Z14	X15	Y15	Z15	X16	Y16	Z16	X17	Y17	Z17	X18	Y18	Z18	X19	Y19	Z19	X20	Y20	Z20	X21	Y21	Z21	X22	Y22	Z22	X23	Y23	Z23	X24	Y24	Z24	X25	Y25	Z25	X26	Y26	Z26	X27	Y27	Z27	X28	Y28	Z28	X29	Y29	Z29	X30	Y30	Z30	X31	Y31	Z31	X32	Y32	Z32	X33	Y33	Z33	X34	Y34	Z34	X35	Y35	Z35	X36	Y36	Z36	X37	Y37	Z37	X38	Y38	Z38	X39	Y39	Z39	X40	Y40	Z40	X41	Y41	Z41	X42	Y42	Z42	X43	Y43	Z43	X44	Y44	Z44	X45	Y45	Z45	X46	Y46	Z46	X47	Y47	Z47	X48	Y48	Z48	X49	Y49	Z49	X50	Y50	Z50	X51	Y51	Z51	

1	0	569.69	1097.4	286.62	463.74	1366.2	431.83	474.69	1363.7	116.78	532.74	1665.2	281.79	463.42	939.52	390.31	463.75	937.97	145.86	250.92	1003.7	312.86	256.89	1004.1	222.04	374.91	876.67	467.06	386.34	869.36	75.312	396.61	1036	428.99	390.45	1048.1	110.41	229.22	970.98	264.23	461.41	642.03	459.67	569.74	576.68	428.71	492.5	555.52	433.62	532.15	657.13	452.61	573.55	492.98	419.8	571.22	481.26	297.77	465.79	344.7	431.16	511.83	266.11	419	439.84	272.29	422.93	530.8	337.35	428.27	396.61	95.979	407	431.19	100.72	322.09	333.12	77.13	358.71	342.65	44.403	330.92	334.34	48.047	395.74	492.31	40.88	453.08	542.24	45.027	347.78	589.08	60.542	395.11	424.7	607.1	114.19	538.33	550.25	105.92	476.72	532.06	132.87	489.7	622.41	83.611	551.54	474.34	117.37	577.96	491.1	248	482.4	367.61	104.44	518.49	264.87	116.58	461.41	294.34	109.5	539.5	339.4	112.32	413.63	107.25	131.74	425.68	93.663	225.37	337.07	70.786	176.28	347.25	45.748	208.84	337.96	43.989	147.31	511.64	44.133	95.313	547.54	42.363	204.16	599.92	59.645	146.84	398.77	1421.8	283.12	310.77	1174.5	263.57
2	0.0041667	569.73	1097.3	286.56	463.78	1366.2	431.84	474.76	1363.6	116.8	532.74	1665.2	281.82	463.44	939.56	390.3	463.8	937.99	145.86	250.96	1003.7	312.83	257.03	1004	222.06	374.94	876.68	467.05	386.41	869.36	75.326	396.65	1036	428.98	390.53	1048.1	110.39	229.29	971.02	264.2	461.43	642.04	459.65	569.7	576.68	428.71	492.5	555.51	433.59	532.18	657.11	452.63	573.55	492.97	419.79	571.23	481.26	297.76	465.78	344.66	431.07	511.83	266.12	418.98	439.85	272.31	422.93	530.81	337.35	428.23	396.62	95.973	406.99	431.21	100.7	322.09	333.1	77.129	358.72	342.65	44.399	330.92	334.34	48.047	395.74	492.31	40.904	453.1	542.23	44.998	347.8	589.07	60.539	395.11	424.68	607.09	114.2	538.36	550.24	105.96	476.75	532.04	132.88	489.75	622.41	83.614	551.61	474.4	117.33	578.03	491.11	248.01	482.47	367.71	104.44	518.35	264.8	116.56	461.38	294.38	109.44	539.46	339.41	112.29	413.56	107.26	131.73	425.73	93.66	225.36	337.05	70.823	176.27	347.26	45.752	208.84	337.96	43.979	147.33	511.64	44.124	95.318	547.55	42.346	204.14	599.92	59.643	146.84	398.82	1421.8	283.13	310.84	1174.5	263.55
3	0.0083333	569.76	1097.2	286.5	463.82	1366.2	431.84	474.84	1363.5	116.82	532.74	1665.2	281.84	463.47	939.6	390.29	463.86	938.01	145.85	251.01	1003.7	312.79	257.16	1004	222.08	374.97	876.69	467.04	386.49	869.36	75.339	396.69	1036	428.97	390.6	1048.2	110.38	229.35	971.06	264.18	461.46	642.05	459.64	569.66	576.68	428.72	492.51	555.51	433.55	532.22	657.09	452.65	573.55	492.96	419.77	571.24	481.26	297.74	465.78	344.62	430.97	511.84	266.12	418.96	439.86	272.32	422.93	530.81	337.35	428.18	396.63	95.968	406.99	431.23	100.67	322.1	333.08	77.128	358.73	342.65	44.395	330.92	334.35	48.047	395.75	492.3	40.926	453.13	542.22	44.971	347.82	589.07	60.535	395.11	424.66	607.08	114.22	538.38	550.23	105.99	476.78	532.03	132.89	489.79	622.41	83.617	551.67	474.45	117.29	578.1	491.12	248.02	482.53	367.81	104.43	518.21	264.72	116.53	461.35	294.42	109.38	539.43	339.42	112.27	413.5	107.26	131.72	425.79	93.657	225.36	337.02	70.859	176.25	347.27	45.757	208.85	337.96	43.97	147.34	511.65	44.115	95.323	547.55	42.33	204.13	599.93	59.64	146.84	398.87	1421.9	283.13	310.9	1174.5	263.54
4	0.0125	569.8	1097.2	286.45	463.86	1366.2	431.85	474.92	1363.4	116.84	532.75	1665.2	281.86	463.49	939.64	390.28	463.91	938.02	145.85	251.07	1003.7	312.76	257.29	1004	222.1	375	876.69	467.02	386.56	869.37	75.35	396.73	1036	428.95	390.68	1048.2	110.37	229.42	971.1	264.16	461.48	642.06	459.62	569.63	576.68	428.73	492.51	555.51	433.52	532.25	657.07	452.67	573.55	492.95	419.76	571.25	481.26	297.73	465.77	344.59	430.88	511.84	266.13	418.94	439.87	272.33	422.93	530.82	337.34	428.14	396.65	95.964	406.98	431.26	100.65	322.11	333.06	77.127	358.75	342.65	44.392	330.92	334.35	48.047	395.76	492.3	40.947	453.15	542.21	44.945	347.84	589.07	60.532	395.11	424.64	607.08	114.24	538.41	550.22	106.02	476.82	532.02	132.9	489.84	622.41	83.62	551.73	474.51	117.25	578.16	491.13	248.03	482.59	367.91	104.43	518.07	264.65	116.51	461.31	294.46	109.32	539.39	339.42	112.25	413.44	107.27	131.72	425.85	93.654	225.35	337	70.894	176.24	347.29	45.761	208.85	337.95	43.961	147.36	511.66	44.107	95.328	547.56	42.315	204.12	599.94	59.638	146.84	398.93	1421.9	283.14	310.97	1174.5	263.53
5	0.016667	569.85	1097.2	286.4	463.9	1366.2	431.85	475	1363.3	116.85	532.75	1665.2	281.89	463.51	939.68	390.27	463.97	938.04	145.84	251.12	1003.7	312.72	257.42	1004	222.11	375.03	876.7	467.01	386.64	869.37	75.358	396.77	1036	428.94	390.76	1048.2	110.36	229.49	971.14	264.13	461.51	642.07	459.6	569.59	576.68	428.73	492.51	555.51	433.48	532.28	657.05	452.68	573.55	492.94	419.75	571.26	481.26	297.72	465.77	344.55	430.79	511.85	266.13	418.92	439.88	272.35	422.93	530.82	337.34	428.09	396.66	95.96	406.97	431.28	100.63	322.11	333.05	77.126	358.76	342.65	44.389	330.92	334.36	48.048	395.76	492.3	40.966	453.18	542.2	44.921	347.86	589.07	60.528	395.11	424.63	607.07	114.25	538.44	550.21	106.04	476.85	532	132.91	489.88	622.41	83.623	551.79	474.56	117.21	578.22	491.14	248.04	482.65	368	104.43	517.95	264.58	116.48	461.29	294.5	109.26	539.37	339.43	112.23	413.38	107.27	131.71	425.9	93.651	225.34	336.98	70.927	176.23	347.3	45.765	208.85	337.95	43.952	147.37	511.66	44.099	95.333	547.56	42.3	204.1	599.94	59.636	146.84	398.98	1421.9	283.14	311.04	1174.5	263.51
6	0.020833	569.89	1097.1	286.35	463.95	1366.2	431.86	475.07	1363.3	116.87	532.75	1665.2	281.91	463.54	939.72	390.26	464.03	938.05	145.84	251.18	1003.7	312.69	257.55	1004	222.12	375.06	876.71	467	386.72	869.38	75.363	396.81	1036	428.93	390.84	1048.2	110.34	229.55	971.18	264.11	461.54	642.08	459.59	569.56	576.69	428.74	492.52	555.51	433.45	532.31	657.04	452.69	573.55	492.94	419.73	571.27	481.26	297.71	465.77	344.52	430.7	511.86	266.14	418.9	439.88	272.36	422.92	530.83	337.34	428.06	396.67	95.956	406.96	431.3	100.61	322.12	333.03	77.126	358.77	342.65	44.387	330.92	334.36	48.05	395.77	492.3	40.982	453.2	542.19	44.9	347.88	589.07	60.525	395.11	424.62	607.07	114.27	538.47	550.2	106.07	476.89	531.99	132.92	489.93	622.4	83.625	551.84	474.61	117.18	578.27	491.15	248.04	482.7	368.09	104.42	517.83	264.52	116.46	461.26	294.54	109.21	539.34	339.44	112.21	413.33	107.27	131.7	425.95	93.648	225.34	336.97	70.957	176.22	347.32	45.769	208.85	337.95	43.944	147.39	511.67	44.093	95.337	547.56	42.286	204.09	599.95	59.634	146.84	399.04	1421.9	283.15	311.12	1174.5	263.5
7	0.025	569.94	1097.1	286.32	463.99	1366.2	431.86	475.15	1363.2	116.89	532.76	1665.3	281.93	463.57	939.75	390.25	464.09	938.06	145.84	251.23	1003.8	312.65	257.66	1004	222.13	375.1	876.72	466.98	386.79	869.39	75.364	396.86	1036.1	428.91	390.92	1048.2	110.33	229.61	971.22	264.08	461.56	642.09	459.57	569.53	576.69	428.74	492.53	555.51	433.42	532.34	657.03	452.7	573.55	492.93	419.72	571.28	481.27	297.69	465.77	344.49	430.63	511.86	266.14	418.88	439.89	272.37	422.92	530.83	337.33	428.02	396.68	95.954	406.96	431.31	100.6	322.12	333.02	77.126	358.77	342.65	44.385	330.92	334.37	48.052	395.78	492.29	40.995	453.21	542.19	44.882	347.9	589.07	60.522	395.11	424.62	607.06	114.28	538.51	550.19	106.09	476.92	531.98	132.92	489.98	622.4	83.627	551.9	474.66	117.15	578.32	491.16	248.05	482.76	368.16	104.42	517.73	264.46	116.45	461.24	294.57	109.16	539.32	339.44	112.19	413.28	107.28	131.7	426	93.646	225.33	336.95	70.984	176.21	347.33	45.772	208.86	337.95	43.937	147.4	511.67	44.087	95.341	547.57	42.274	204.08	599.96	59.633	146.85	399.09	1421.9	283.15	311.19	1174.5	263.48
8	0.029167	569.99	1097.1	286.28	464.04	1366.2	431.86	475.23	1363.2	116.9	532.76	1665.3	281.95	463.59	939.79	390.24	464.15	938.08	145.83	251.29	1003.8	312.62	257.77	1004	222.13	375.13	876.72	466.97	386.87	869.39	75.363	396.9	1036.1	428.9	391	1048.2	110.31	229.67	971.26	264.06	461.59	642.1	459.55	569.5	576.69	428.74	492.54	555.51	433.39	532.36	657.01	452.71	573.56	492.92	419.71	571.29	481.27	297.69	465.77	344.46	430.56	511.87	266.15	418.87	439.9	272.38	422.91	530.84	337.33	427.99	396.7	95.952	406.95	431.33	100.59	322.12	333.01	77.126	358.78	342.65	44.384	330.92	334.37	48.054	395.78	492.29	41.005	453.23	542.18	44.866	347.91	589.07	60.519	395.11	424.63	607.06	114.3	538.54	550.18	106.11	476.95	531.97	132.93	490.02	622.4	83.628	551.95	474.69	117.12	578.36	491.16	248.06	482.8	368.23	104.42	517.65	264.41	116.43	461.22	294.6	109.12	539.3	339.45	112.18	413.24	107.28	131.69	426.04	93.643	225.33	336.94	71.007	176.2	347.34	45.776	208.86	337.95	43.93	147.41	511.67	44.082	95.345	547.57	42.263	204.07	599.96	59.632	146.85	399.15	1421.9	283.16	311.26	1174.5	263.47
9	0.033333	570.04	1097.1	286.25	464.09	1366.2	431.86	475.31	1363.1	116.91	532.77	1665.3	281.97	463.62	939.82	390.23	464.21	938.09	145.83	251.35	1003.8	312.59	257.86	1004	222.12	375.16	876.73	466.95	386.94	869.41	75.358	396.94	1036.1	428.89	391.08	1048.3	110.29	229.72	971.3	264.03	461.61	642.11	459.54	569.48	576.69	428.74	492.55	555.51	433.36	532.39	657	452.71	573.56	492.92	419.7	571.3	481.27	297.68	465.78	344.44	430.5	511.87	266.15	418.85	439.91	272.38	422.91	530.84	337.33	427.96	396.71	95.95	406.94	431.34	100.58	322.12	333	77.126	358.79	342.65	44.383	330.92	334.38	48.057	395.79	492.3	41.012	453.24	542.17	44.854	347.92	589.07	60.517	395.11	424.63	607.06	114.31	538.57	550.17	106.12	476.98	531.96	132.93	490.07	622.4	83.628	551.99	474.73	117.1	578.4	491.17	248.07	482.85	368.29	104.41	517.57	264.37	116.42	461.2	294.62	109.08	539.29	339.45	112.17	413.21	107.28	131.68	426.08	93.641	225.32	336.93	71.028	176.19	347.35	45.779	208.86	337.95	43.925	147.41	511.67	44.078	95.348	547.57	42.253	204.06	599.97	59.632	146.85	399.21	1421.9	283.16	311.33	1174.5	263.45
10	0.0375	570.1	1097.1	286.23	464.14	1366.2	431.86	475.38	1363.1	116.92	532.77	1665.3	281.98	463.65	939.85	390.23	464.27	938.1	145.83	251.41	1003.8	312.56	257.95	1004	222.11	375.19	876.74	466.93	387.01	869.42	75.35	396.98	1036.1	428.87	391.16	1048.3	110.28	229.77	971.35	264.01	461.63	642.11	459.52	569.46	576.7	428.74	492.56	555.51	433.34	532.41	656.99	452.71	573.57	492.91	419.69	571.32	481.27	297.67	465.78	344.42	430.44	511.88	266.15	418.84	439.92	272.39	422.9	530.85	337.33	427.93	396.71	95.95	406.93	431.35	100.57	322.13	332.99	77.127	358.79	342.65	44.382	330.92	334.38	48.06	395.79	492.3	41.016	453.24	542.17	44.844	347.94	589.07	60.515	395.11	424.65	607.06	114.32	538.6	550.16	106.14	477.02	531.95	132.94	490.11	622.4	83.628	552.04	474.75	117.08	578.43	491.17	248.07	482.88	368.34	104.41	517.51	264.33	116.41	461.19	294.65	109.04	539.28	339.45	112.16	413.18	107.28	131.68	426.11	93.64	225.32	336.92	71.045	176.19	347.36	45.782	208.87	337.95	43.92	147.42	511.67	44.075	95.351	547.57	42.245	204.06	599.97	59.632	146.85	399.27	1421.9	283.16	311.4	1174.5	263.44
11	0.041667	570.16	1097.1	286.21	464.19	1366.2	431.86	475.46	1363.1	116.93	532.78	1665.3	282	463.68	939.88	390.22	464.33	938.11	145.83	251.46	1003.8	312.53	258.03	1004	222.09	375.22	876.75	466.92	387.08	869.43	75.34	397.03	1036.1	428.86	391.23	1048.3	110.26	229.81	971.39	263.98	461.66	642.12	459.5	569.44	576.7	428.74	492.58	555.51	433.32	532.43	656.98	452.71	573.58	492.91	419.68	571.33	481.27	297.66	465.78	344.4	430.39	511.88	266.15	418.83	439.93	272.4	422.9	530.86	337.32	427.91	396.72	95.949	406.93	431.36	100.56	322.13	332.99	77.128	358.8	342.65	44.382	330.92	334.39	48.063	395.79	492.3	41.019	453.25	542.16	44.836	347.94	589.07	60.513	395.11	424.66	607.06	114.33	538.63	550.15	106.15	477.05	531.94	132.94	490.15	622.39	83.627	552.08	474.77	117.06	578.46	491.17	248.08	482.92	368.38	104.41	517.46	264.3	116.41	461.19	294.66	109.01	539.28	339.45	112.15	413.16	107.28	131.68	426.14	93.638	225.32	336.92	71.06	176.18	347.37	45.785	208.87	337.95	43.916	147.42	511.67	44.073	95.354	547.57	42.238	204.05	599.97	59.632	146.86	399.33	1421.9	283.16	311.47	1174.5	263.42
